<svg width="372" height="70" viewBox="0 0 372 70" fill="none" xmlns="http://www.w3.org/2000/svg">
<path d="M65.8154 63V18.9H71.9104V63H65.8154ZM68.9058 9.15599C67.6468 9.15599 66.588 8.73599 65.7295 7.89599C64.8711 7.05599 64.4418 6.048 64.4418 4.872C64.4418 3.696 64.8711 2.71599 65.7295 1.93199C66.588 1.092 67.6468 0.671997 68.9058 0.671997C70.1649 0.671997 71.2237 1.064 72.0821 1.848C72.9406 2.632 73.3698 3.612 73.3698 4.788C73.3698 6.02 72.9406 7.05599 72.0821 7.89599C71.2809 8.73599 70.2221 9.15599 68.9058 9.15599Z" fill="black"/>
<path d="M111.877 18.48C115.54 18.48 118.745 19.18 121.492 20.58C124.296 21.924 126.471 23.996 128.016 26.796C129.618 29.596 130.42 33.124 130.42 37.38V63H124.325V37.968C124.325 33.32 123.123 29.82 120.719 27.468C118.373 25.06 115.053 23.856 110.761 23.856C107.556 23.856 104.752 24.5 102.348 25.788C100.001 27.02 98.1701 28.84 96.8538 31.248C95.5947 33.6 94.9652 36.456 94.9652 39.816V63H88.8701V18.9H94.7076V30.996L93.7633 28.728C95.1941 25.536 97.4833 23.044 100.631 21.252C103.779 19.404 107.527 18.48 111.877 18.48Z" fill="black"/>
<path d="M203.198 18.48C206.861 18.48 210.037 19.18 212.727 20.58C215.474 21.924 217.591 23.996 219.079 26.796C220.625 29.596 221.397 33.124 221.397 37.38V63H215.302V37.968C215.302 33.32 214.158 29.82 211.868 27.468C209.636 25.06 206.46 23.856 202.339 23.856C199.249 23.856 196.559 24.5 194.27 25.788C192.038 27.02 190.292 28.84 189.033 31.248C187.831 33.6 187.23 36.456 187.23 39.816V63H181.135V37.968C181.135 33.32 179.991 29.82 177.702 27.468C175.412 25.06 172.207 23.856 168.087 23.856C165.054 23.856 162.392 24.5 160.103 25.788C157.814 27.02 156.04 28.84 154.781 31.248C153.579 33.6 152.978 36.456 152.978 39.816V63H146.883V18.9H152.72V30.828L151.776 28.728C153.15 25.536 155.353 23.044 158.386 21.252C161.477 19.404 165.111 18.48 169.289 18.48C173.695 18.48 177.444 19.572 180.534 21.756C183.625 23.884 185.628 27.104 186.544 31.416L184.14 30.492C185.456 26.908 187.774 24.024 191.094 21.84C194.47 19.6 198.505 18.48 203.198 18.48Z" fill="black"/>
<path d="M257.071 63.42C252.378 63.42 248.257 62.468 244.709 60.564C241.16 58.604 238.385 55.944 236.382 52.584C234.379 49.168 233.377 45.276 233.377 40.908C233.377 36.54 234.321 32.676 236.21 29.316C238.156 25.956 240.788 23.324 244.108 21.42C247.484 19.46 251.262 18.48 255.44 18.48C259.675 18.48 263.423 19.432 266.685 21.336C270.005 23.184 272.609 25.816 274.497 29.232C276.386 32.592 277.33 36.484 277.33 40.908C277.33 41.188 277.302 41.496 277.244 41.832C277.244 42.112 277.244 42.42 277.244 42.756H238.013V38.304H273.982L271.579 40.068C271.579 36.876 270.863 34.048 269.432 31.584C268.059 29.064 266.17 27.104 263.767 25.704C261.363 24.304 258.587 23.604 255.44 23.604C252.349 23.604 249.573 24.304 247.112 25.704C244.652 27.104 242.734 29.064 241.361 31.584C239.987 34.104 239.3 36.988 239.3 40.236V41.16C239.3 44.52 240.044 47.488 241.532 50.064C243.078 52.584 245.195 54.572 247.885 56.028C250.632 57.428 253.751 58.128 257.242 58.128C259.989 58.128 262.536 57.652 264.883 56.7C267.286 55.748 269.347 54.292 271.064 52.332L274.497 56.196C272.494 58.548 269.976 60.34 266.943 61.572C263.967 62.804 260.676 63.42 257.071 63.42Z" fill="black"/>
<path d="M312.743 18.48C316.406 18.48 319.611 19.18 322.358 20.58C325.162 21.924 327.337 23.996 328.882 26.796C330.485 29.596 331.286 33.124 331.286 37.38V63H325.191V37.968C325.191 33.32 323.989 29.82 321.585 27.468C319.239 25.06 315.92 23.856 311.627 23.856C308.422 23.856 305.618 24.5 303.214 25.788C300.868 27.02 299.036 28.84 297.72 31.248C296.461 33.6 295.832 36.456 295.832 39.816V63H289.736V18.9H295.574V30.996L294.63 28.728C296.06 25.536 298.35 23.044 301.497 21.252C304.645 19.404 308.394 18.48 312.743 18.48Z" fill="black"/>
<path d="M362 63.42C357.765 63.42 354.503 62.3 352.214 60.06C349.925 57.82 348.78 54.656 348.78 50.568V9.15601H354.875V50.232C354.875 52.808 355.533 54.796 356.85 56.196C358.223 57.596 360.169 58.296 362.687 58.296C365.377 58.296 367.609 57.54 369.383 56.028L371.529 60.312C370.327 61.376 368.868 62.16 367.151 62.664C365.491 63.168 363.774 63.42 362 63.42ZM340.711 23.856V18.9H368.61V23.856H340.711Z" fill="black"/>
<path d="M23.2643 63.84C20.1166 63.84 17.0548 63.532 14.0788 62.916C11.16 62.3 8.47015 61.488 6.00923 60.48C3.60554 59.416 1.60246 58.24 0 56.952L4.72154 48.384C6.38123 49.728 8.26985 50.876 10.3874 51.828C12.5049 52.78 14.7369 53.508 17.0834 54.012C19.4871 54.516 21.8908 54.768 24.2945 54.768C27.2132 54.768 29.76 54.432 31.9348 53.76C34.1095 53.088 35.7692 52.136 36.9138 50.904C38.1157 49.672 38.7166 48.188 38.7166 46.452C38.7166 44.884 38.1729 43.624 37.0855 42.672C35.9982 41.664 34.5388 40.852 32.7074 40.236C30.9332 39.564 28.9588 38.948 26.784 38.388C24.6665 37.772 22.5203 37.1 20.3455 36.372C18.1708 35.588 16.1963 34.636 14.4222 33.516C12.648 32.34 11.1886 30.856 10.044 29.064C8.95662 27.272 8.41292 25.032 8.41292 22.344C8.41292 18.48 9.50031 15.148 11.6751 12.348C13.9071 9.49198 16.9689 7.27998 20.8606 5.71199C24.8095 4.14399 29.388 3.35999 34.596 3.35999C38.4877 3.35999 42.1791 3.77999 45.6702 4.61999C49.1612 5.45999 52.1658 6.69199 54.684 8.31598L50.3058 16.968C48.0738 15.512 45.5557 14.392 42.7514 13.608C39.9471 12.824 37.0283 12.432 33.9951 12.432C31.0191 12.432 28.4437 12.796 26.2689 13.524C24.0942 14.252 22.4345 15.26 21.2898 16.548C20.1452 17.836 19.5443 19.348 19.4871 21.084C19.4871 22.708 20.0308 24.024 21.1182 25.032C22.2055 25.984 23.6363 26.796 25.4105 27.468C27.1846 28.14 29.1591 28.784 31.3338 29.4C33.5086 29.96 35.6548 30.604 37.7723 31.332C39.9471 32.06 41.9502 32.984 43.7815 34.104C45.6129 35.224 47.0723 36.652 48.1597 38.388C49.2471 40.068 49.7908 42.196 49.7908 44.772C49.7908 48.636 48.6748 51.996 46.4428 54.852C44.268 57.708 41.1775 59.92 37.1714 61.488C33.2225 63.056 28.5868 63.84 23.2643 63.84Z" fill="#DF0000"/>
</svg>
